<?xml version="1.0" encoding="UTF-8" standalone="no"?>
<svg
   xmlns:dc="http://purl.org/dc/elements/1.1/"
   xmlns:cc="http://creativecommons.org/ns#"
   xmlns:rdf="http://www.w3.org/1999/02/22-rdf-syntax-ns#"
   xmlns:svg="http://www.w3.org/2000/svg"
   xmlns="http://www.w3.org/2000/svg"
   xmlns:sodipodi="http://sodipodi.sourceforge.net/DTD/sodipodi-0.dtd"
   xmlns:inkscape="http://www.inkscape.org/namespaces/inkscape"
   inkscape:version="1.0 (4035a4fb49, 2020-05-01)"
   sodipodi:docname="brain-ai-logo.svg"
   version="1.1"
   data-name="Layer 2"
   width="512"
   viewBox="0 0 128 128"
   height="512"
   id="Layer_2">
  <metadata
     id="metadata27">
    <rdf:RDF>
      <cc:Work
         rdf:about="">
        <dc:format>image/svg+xml</dc:format>
        <dc:type
           rdf:resource="http://purl.org/dc/dcmitype/StillImage" />
        <dc:title></dc:title>
      </cc:Work>
    </rdf:RDF>
  </metadata>
  <defs
     id="defs25" />
  <sodipodi:namedview
     inkscape:current-layer="Layer_2"
     inkscape:window-maximized="1"
     inkscape:window-y="32"
     inkscape:window-x="-8"
     inkscape:cy="256"
     inkscape:cx="256"
     inkscape:zoom="1.1074219"
     showgrid="false"
     id="namedview23"
     inkscape:window-height="1017"
     inkscape:window-width="1920"
     inkscape:pageshadow="2"
     inkscape:pageopacity="0"
     guidetolerance="10"
     gridtolerance="10"
     objecttolerance="10"
     borderopacity="1"
     bordercolor="#666666"
     pagecolor="#ffffff" />
  <path
     style="fill:#00ff00"
     id="path2"
     d="m30.6 47.462a1.75 1.75 0 0 0 -1.75-1.75 19.477 19.477 0 0 0 -19.45 19.455 1.75 1.75 0 1 0 3.5 0 15.973 15.973 0 0 1 15.951-15.955 1.75 1.75 0 0 0 1.749-1.75z" />
  <path
     style="fill:#00ff00"
     id="path4"
     d="m45.812 10.072a10.168 10.168 0 0 0 -10.156 10.156 1.75 1.75 0 0 0 3.5 0 6.656 6.656 0 1 1 13.313 0 1.75 1.75 0 0 0 3.5 0 10.168 10.168 0 0 0 -10.157-10.156z" />
  <path
     style="fill:#00ff00"
     id="path6"
     d="m35.877 35.656h.75a8.618 8.618 0 0 1 8.609 8.609v5.657a8.618 8.618 0 0 1 -8.609 8.609 1.75 1.75 0 0 0 0 3.5 12.123 12.123 0 0 0 12.109-12.109v-5.657a12.123 12.123 0 0 0 -12.109-12.109h-.75a1.75 1.75 0 0 0 0 3.5z" />
  <path
     style="fill:#00ff00"
     id="path8"
     d="m47 79.656a1.75 1.75 0 0 0 0-3.5h-10a10.136 10.136 0 0 1 -10.125-10.125 1.75 1.75 0 0 0 -3.5 0 13.641 13.641 0 0 0 13.625 13.625z" />
  <path
     style="fill:#00ff00"
     id="path10"
     d="m53.375 100.406a12.514 12.514 0 0 1 -12.5-12.5 1.75 1.75 0 0 0 -3.5 0 16.018 16.018 0 0 0 16 16 1.75 1.75 0 0 0 0-3.5z" />
  <path
     style="fill:#00ff00"
     id="path12"
     d="m28.545 96.763a5.357 5.357 0 0 1 -4.5-6.083 1.75 1.75 0 1 0 -3.461-.519 8.862 8.862 0 0 0 7.443 10.064 1.829 1.829 0 0 0 .261.019 1.75 1.75 0 0 0 .257-3.481z" />
  <path
     style="fill:#00ff00"
     id="path14"
     d="m46.25 115.244a7.508 7.508 0 0 1 -7.5-7.5 1.75 1.75 0 0 0 -3.5 0 11.012 11.012 0 0 0 11 11 1.75 1.75 0 1 0 0-3.5z" />
  <path
     style="fill:#00ff00"
     id="path16"
     d="m121.062 70.406a6.885 6.885 0 0 0 -3.5.96l-22.7-22.7a1.75 1.75 0 0 0 -1.237-.513h-27.875v-10.83h48.607a6.938 6.938 0 1 0 0-3.5h-48.607v-7.833h27.875a1.75 1.75 0 0 0 1.237-.513l7.5-7.5a6.951 6.951 0 1 0 -2.6-2.349l-6.862 6.862h-27.15v-2.646a19.938 19.938 0 0 0 -39.815-1.544 17.258 17.258 0 0 0 -14.749 17.07 17.025 17.025 0 0 0 1.144 6.151 28.85 28.85 0 0 0 -.649 46.836 17.241 17.241 0 0 0 14.254 21.16 19.938 19.938 0 0 0 39.815-1.546v-.312h19.15l7.458 9.478a6.969 6.969 0 1 0 2.687-2.245l-7.92-10.065a1.75 1.75 0 0 0 -1.375-.668h-20v-10.5h18.482a6.938 6.938 0 1 0 0-3.5h-18.482v-10.5h29.481a6.938 6.938 0 1 0 0-3.5h-29.481v-10.5h10.519a6.939 6.939 0 1 0 -.086-3.5h-10.433v-10.5h27.15l22.185 22.184a6.931 6.931 0 1 0 5.978-3.434zm0-38.271a3.438 3.438 0 1 1 -3.437 3.438 3.441 3.441 0 0 1 3.437-3.438zm-15.5-23.751a3.437 3.437 0 1 1 -3.437 3.437 3.441 3.441 0 0 1 3.437-3.437zm-4.125 112.772a3.437 3.437 0 1 1 -3.437-3.437 3.441 3.441 0 0 1 3.437 3.437zm-10.5-32.687a3.438 3.438 0 1 1 -3.437 3.437 3.441 3.441 0 0 1 3.437-3.437zm11-14a3.438 3.438 0 1 1 -3.437 3.437 3.441 3.441 0 0 1 3.437-3.437zm-19.006-14.169a3.438 3.438 0 1 1 -3.437 3.438 3.441 3.441 0 0 1 3.437-3.438zm-20.681 47.669a16.438 16.438 0 0 1 -32.875.039c0-.028 0-.058 0-.081a1.75 1.75 0 0 0 -1.657-1.748 13.744 13.744 0 0 1 -12.354-18 1.749 1.749 0 0 0 -.685-1.992 25.351 25.351 0 0 1 .766-42.54 1.75 1.75 0 0 0 .646-2.253 13.73 13.73 0 0 1 11.629-19.761 1.75 1.75 0 0 0 1.657-1.748c0-.022 0-.051 0-.08a16.438 16.438 0 0 1 32.875.038zm58.812-27.187a3.438 3.438 0 1 1 3.438-3.437 3.441 3.441 0 0 1 -3.438 3.436z" />
  <path
     style="fill:#00ff00"
     id="path18"
     d="m115.875 45.156a6.938 6.938 0 1 0 6.937 6.938 6.946 6.946 0 0 0 -6.937-6.938zm0 10.375a3.438 3.438 0 1 1 3.437-3.437 3.441 3.441 0 0 1 -3.437 3.437z" />
  <path
     style="fill:#00ff00"
     id="path20"
     d="m115.875 92.707a6.938 6.938 0 1 0 6.937 6.938 6.946 6.946 0 0 0 -6.937-6.938zm0 10.375a3.438 3.438 0 1 1 3.437-3.438 3.441 3.441 0 0 1 -3.437 3.438z" />
</svg>
